<svg id="Layer_35" enable-background="new 0 0 64 64" height="512" viewBox="0 0 64 64" width="512" xmlns="http://www.w3.org/2000/svg"><path d="m19.73 27.97c-.46.77-.79 1.63-.96 2.55l-.65 3.45c-5.66-.45-10.12-5.19-10.12-10.97 0-6.08 4.92-11 11-11 2.62 0 5.03.92 6.92 2.45-1.72.79-2.92 2.53-2.92 4.55 0 .41.05.81.15 1.2-.9-1.33-2.42-2.2-4.15-2.2-2.76 0-5 2.24-5 5s2.24 5 5 5c.24 0 .47-.02.7-.05z" fill="#fcd770"/><path d="m17 39.9v.1h-1l-.58-2.45c-1.49-.36-2.9-.95-4.18-1.73l-2.14 1.32-4.24-4.24 1.32-2.14c-.78-1.28-1.37-2.69-1.73-4.18l-2.45-.58v-6l2.45-.58c.36-1.49.95-2.9 1.73-4.18l-1.32-2.14 4.24-4.24 2.14 1.32c1.28-.78 2.69-1.37 4.18-1.73l.58-2.45h6l.58 2.45c1.49.36 2.9.95 4.18 1.73l2.14-1.32 4.24 4.24-1.53 2.44c-.91-.95-2.19-1.54-3.61-1.54-.74 0-1.45.16-2.08.45-1.89-1.53-4.3-2.45-6.92-2.45-6.08 0-11 4.92-11 11 0 5.78 4.46 10.52 10.12 10.97z" fill="#ffc729"/><path d="m49 2c-7.18 0-13 5.82-13 13 0 3.72 1.57 6.78 4.07 9h4.93c1.02 0 1.87.78 1.99 1.77.01.07.01.15.01.23h4 4c4.16-2.17 7-5.99 7-11 0-7.18-5.82-13-13-13z" fill="#ffeaa7"/><path d="m57.12 10.88c.54.54.88 1.29.88 2.12 0 1.66-1.34 3-3 3h-3.38l.2-3.19c.1-1.58 1.41-2.81 3-2.81h.18c.83 0 1.58.34 2.12.88z" fill="#fcd770"/><path d="m46.18 12.81.2 3.19h-3.38c-.83 0-1.58-.34-2.12-.88s-.88-1.29-.88-2.12c0-1.66 1.34-3 3-3h.18c1.59 0 2.9 1.23 3 2.81z" fill="#fcd770"/><path d="m33 58v1.5c0 1.38-1.12 2.5-2.5 2.5-.69 0-1.32-.28-1.77-.73s-.73-1.08-.73-1.77v-13.5c0-.55-.45-1-1-1h-5.97-.03c-2.21 0-4-1.79-4-4v-.1-.9h10 2c2.21 0 4 1.79 4 4z" fill="#cf9e76"/><path d="m12.1 58.64 4.9-17.74v.1c0 2.21 1.79 4 4 4h.03l-4.18 15.11c-.38 1.39-1.76 2.19-3.07 1.78-1.31-.4-2.06-1.86-1.68-3.25z" fill="#cf9e76"/><path d="m43 32v4h-15.33l.66-4z" fill="#e6e9ed"/><path d="m40.07 24h4.93c1.02 0 1.87.78 1.99 1.77.01.07.01.15.01.23 0 .56-.22 1.06-.59 1.42-.36.36-.86.58-1.41.58h-2-12.31c-.97 0-1.81.71-1.97 1.67l-.39 2.33-.66 4-.67 4h-10v-.1l1.12-5.93.65-3.45c.17-.92.5-1.78.96-2.55 1.4-2.4 4-3.97 6.9-3.97h1.37z" fill="#e6e9ed"/><path d="m31.61 15.54c.86.9 1.39 2.12 1.39 3.46 0 2.76-2.24 5-5 5-2.35 0-4.32-1.62-4.85-3.8-.1-.39-.15-.79-.15-1.2 0-2.02 1.2-3.76 2.92-4.55.63-.29 1.34-.45 2.08-.45 1.42 0 2.7.59 3.61 1.54z" fill="#f0d0b4"/><path d="m46.41 27.42c.37-.36.59-.86.59-1.42h4 4v4h-6-6v-2h2c.55 0 1.05-.22 1.41-.58z" fill="#aab2bd"/><path d="m49 50v-20h6v20l-3-2z" fill="#ff826e"/><path d="m49 30v20l-3-2-3 2v-14-4-2z" fill="#b4dd7f"/><path d="m55 50-3 5h-6l-3-5 3-2 3 2 3-2z" fill="#aab2bd"/><path d="m52 55-3 5-3-5z" fill="#e6e9ed"/><path d="m49 1c-7.72 0-14 6.28-14 14 0 3.011.954 5.731 2.761 8h-5.301c.954-1.063 1.54-2.462 1.54-4 0-1.32-.433-2.537-1.158-3.529l1.57-2.515-5.365-5.365-2.303 1.425c-1.056-.586-2.172-1.049-3.332-1.381l-.62-2.635h-7.584l-.62 2.634c-1.16.333-2.276.795-3.332 1.381l-2.303-1.424-5.363 5.363 1.426 2.302c-.586 1.057-1.049 2.173-1.381 3.332l-2.635.62v7.584l2.635.62c.332 1.159.795 2.275 1.381 3.332l-1.426 2.303 5.363 5.363 2.303-1.426c1.057.586 2.173 1.049 3.332 1.381l.62 2.635h.728l-4.799 17.37c-.526 1.904.526 3.913 2.347 4.479.327.102.662.152.996.152.555 0 1.105-.141 1.61-.416.848-.464 1.46-1.247 1.725-2.206l3.973-14.379h5.212l-.002 13.499c0 1.931 1.57 3.501 3.501 3.501s3.501-1.57 3.501-3.501v-15.499c0-2.757-2.243-5-5-5h-.819l.333-2h13.486v13.277l7 11.666 7-11.666v-23.683c4.458-2.537 7-6.731 7-11.594 0-7.72-6.28-14-14-14zm-4.652 49.303 1.652-1.101 3 2 3-2 1.652 1.101-2.218 3.697h-4.868zm-2.348-19.303h-12.486l.194-1.165c.08-.484.495-.835.986-.835h11.306zm2 0h4v17.131l-2-1.333-2 1.333zm8 15.798-2 1.333v-17.131h4v17.131zm2-17.798h-9c1.301 0 2.401-.839 2.816-2h6.184zm-3.939-4h-2.121l-.5-8h3.121zm-4.062 1.007c-.006.548-.451.993-.999.993h-14.306c-1.474 0-2.718 1.055-2.959 2.507l-1.582 9.493h-7.964l1.565-8.297c.622-3.305 3.516-5.703 6.878-5.703h18.368c.268 0 .519.104.707.293.186.185.286.432.29.693zm-26.833.982c-.056.002-.11.011-.166.011-2.206 0-4-1.794-4-4s1.794-4 4-4c1.287 0 2.486.621 3.239 1.662.31 1.073.912 2.019 1.713 2.755-1.961.613-3.648 1.879-4.786 3.572zm2.943-9.109c-.926-.561-1.993-.88-3.109-.88-3.309 0-6 2.691-6 6 0 3.028 2.256 5.532 5.175 5.936-.163.449-.296.913-.386 1.395l-.476 2.523c-4.727-.808-8.313-4.974-8.313-9.854 0-5.514 4.486-10 10-10 1.811 0 3.586.503 5.128 1.424-1.028.871-1.758 2.081-2.019 3.456zm1.891 1.12c0-2.206 1.794-4 4-4s4 1.794 4 4-1.794 4-4 4-4-1.794-4-4zm-12.242 15.964-.523-.318-1.986 1.229-3.123-3.123 1.229-1.986-.318-.524c-.736-1.215-1.281-2.528-1.617-3.904l-.146-.595-2.274-.535v-4.416l2.272-.535.146-.595c.336-1.375.881-2.689 1.617-3.904l.318-.524-1.229-1.986 3.123-3.123 1.986 1.229.523-.318c1.214-.737 2.527-1.281 3.904-1.619l.595-.146.537-2.271h4.416l.535 2.272.595.146c1.377.337 2.69.882 3.904 1.619l.523.318 1.986-1.229 3.121 3.121-.498.797c-.961-.658-2.123-1.044-3.374-1.044-.673 0-1.318.116-1.923.322-2.045-1.495-4.531-2.322-7.077-2.322-6.617 0-12 5.383-12 12 0 5.845 4.285 10.836 9.941 11.822l-.504 2.672-.181-.767-.596-.146c-1.375-.336-2.687-.881-3.902-1.617zm4.129 24.883c-.119.433-.389.782-.757.983-.327.18-.703.218-1.054.108-.8-.248-1.254-1.161-1.012-2.035l4.078-14.761c.665.814 1.57 1.414 2.618 1.684zm13.113-18.847c1.654 0 3 1.346 3 3v15.499c0 .827-.674 1.501-1.501 1.501-.828 0-1.501-.674-1.501-1.501l.002-13.499c0-1.103-.897-2-2-2h-4.687-1.313c-1.654 0-3-1.346-3-3h7.819 1.181zm-.153-6 .333-2h12.82v2zm18.919 21h2.468l-1.234 2.057zm6.961-31h-2.662l.5-8h2.435c2.206 0 4-1.794 4-4s-1.794-4-4-4h-.182c-2.107 0-3.861 1.647-3.992 3.75l-.14 2.25h-3.371l-.141-2.25c-.131-2.103-1.885-3.75-3.992-3.75h-.182c-2.206 0-4 1.794-4 4s1.794 4 4 4h2.436l.383 6.127c-.265-.075-.537-.127-.819-.127h-4.521c-2.269-2.13-3.479-4.882-3.479-8 0-6.617 5.383-12 12-12s12 5.383 12 12c0 4.278-2.232 7.816-6.273 10zm-2.038-10 .133-2.125c.066-1.051.943-1.875 1.996-1.875h.182c1.103 0 2 .897 2 2s-.897 2-2 2zm-7.378 0h-2.311c-1.103 0-2-.897-2-2s.897-2 2-2h.182c1.054 0 1.931.824 1.996 1.875z"/></svg>